<svg xmlns="http://www.w3.org/2000/svg" viewBox="0 0 430 188"><path fill="#ea4324" d="M 116.00 2.00 C 121.50 2.50 137.17 1.33 148.00 6.00 C 158.83 10.67 173.50 25.17 181.00 30.00 C 188.50 34.83 184.33 34.17 193.00 35.00 C 201.67 35.83 219.67 31.33 233.00 35.00 C 246.33 38.67 260.83 53.17 273.00 57.00 C 285.17 60.83 297.00 56.50 306.00 58.00 C 315.00 59.50 319.83 61.17 327.00 66.00 C 334.17 70.83 342.83 77.00 349.00 87.00 C 355.17 97.00 359.00 116.17 364.00 126.00 C 369.00 135.83 373.67 140.33 379.00 146.00 C 384.33 151.67 388.33 156.17 396.00 160.00 C 403.67 163.83 419.83 165.67 425.00 169.00 C 430.17 172.33 427.67 177.33 427.00 180.00 C 426.33 182.67 491.17 184.33 421.00 185.00 C 350.83 185.67 75.83 185.17 6.00 184.00 C -63.83 182.83 2.17 180.50 2.00 178.00 C 1.83 175.50 -0.67 172.17 5.00 169.00 C 10.67 165.83 28.33 162.83 36.00 159.00 C 43.67 155.17 46.67 150.83 51.00 146.00 C 55.33 141.17 59.50 135.00 62.00 130.00 C 64.50 125.00 65.83 127.67 66.00 116.00 C 66.17 104.33 62.17 73.83 63.00 60.00 C 63.83 46.17 66.67 40.83 71.00 33.00 C 75.33 25.17 81.67 18.00 89.00 13.00 C 96.33 8.00 110.50 4.83 115.00 3.00 C 119.50 1.17 110.50 1.50 116.00 2.00 Z"/></svg>