<svg xmlns="http://www.w3.org/2000/svg" viewBox="0 0 1375 611"><path fill="#ea4324" d="M 379.0 14.0 C 387.3 13.8 410.3 11.3 428.0 14.0 C 445.7 16.7 456.0 13.7 485.0 30.0 C 514.0 46.3 577.5 97.2 602.0 112.0 C 626.5 126.8 608.3 118.0 632.0 119.0 C 655.7 120.0 717.2 114.8 744.0 118.0 C 770.8 121.2 772.8 126.8 793.0 138.0 C 813.2 149.2 849.0 176.2 865.0 185.0 C 881.0 193.8 871.0 190.0 889.0 191.0 C 907.0 192.0 948.0 187.2 973.0 191.0 C 998.0 194.8 1021.5 205.5 1039.0 214.0 C 1056.5 222.5 1066.2 231.2 1078.0 242.0 C 1089.8 252.8 1096.2 252.0 1110.0 279.0 C 1123.8 306.0 1146.7 374.7 1161.0 404.0 C 1175.3 433.3 1179.3 437.0 1196.0 455.0 C 1212.7 473.0 1235.0 497.5 1261.0 512.0 C 1287.0 526.5 1335.5 535.3 1352.0 542.0 C 1368.5 548.7 1359.7 544.7 1360.0 552.0 C 1360.3 559.3 1358.2 578.7 1354.0 586.0 C 1349.8 593.3 1555.8 595.0 1335.0 596.0 C 1114.2 597.0 249.2 596.2 29.0 592.0 C -191.2 587.8 14.7 579.3 14.0 571.0 C 13.3 562.7 7.8 551.7 25.0 542.0 C 42.2 532.3 93.3 524.8 117.0 513.0 C 140.7 501.2 152.7 486.5 167.0 471.0 C 181.3 455.5 194.7 439.7 203.0 420.0 C 211.3 400.3 216.3 389.2 217.0 353.0 C 217.7 316.8 204.5 242.8 207.0 203.0 C 209.5 163.2 223.0 135.3 232.0 114.0 C 241.0 92.7 251.2 85.8 261.0 75.0 C 270.8 64.2 279.5 57.0 291.0 49.0 C 302.5 41.0 315.5 32.7 330.0 27.0 C 344.5 21.3 369.8 17.2 378.0 15.0 C 386.2 12.8 370.7 14.2 379.0 14.0 Z"/></svg>