<svg xmlns="http://www.w3.org/2000/svg" viewBox="0 0 138 60"><path fill="#ea4324" d="M 37.00 1.00 C 38.67 1.00 41.83 0.17 46.00 2.00 C 50.17 3.83 57.67 10.50 62.00 12.00 C 66.33 13.50 67.83 9.83 72.00 11.00 C 76.17 12.17 82.00 17.50 87.00 19.00 C 92.00 20.50 98.00 18.50 102.00 20.00 C 106.00 21.50 108.33 24.00 111.00 28.00 C 113.67 32.00 116.00 40.50 118.00 44.00 C 120.00 47.50 120.33 47.50 123.00 49.00 C 125.67 50.50 131.83 51.83 134.00 53.00 C 136.17 54.17 136.00 55.17 136.00 56.00 C 136.00 56.83 156.33 57.67 134.00 58.00 C 111.67 58.33 24.17 58.50 2.00 58.00 C -20.17 57.50 0.83 55.83 1.00 55.00 C 1.17 54.17 1.33 53.67 3.00 53.00 C 4.67 52.33 8.17 52.83 11.00 51.00 C 13.83 49.17 18.17 48.50 20.00 42.00 C 21.83 35.50 20.67 18.17 22.00 12.00 C 23.33 5.83 25.67 6.67 28.00 5.00 C 30.33 3.33 34.50 2.67 36.00 2.00 C 37.50 1.33 35.33 1.00 37.00 1.00 Z"/></svg>