<svg xmlns="http://www.w3.org/2000/svg" viewBox="0 0 1375 611"><path fill="#ea4324" d="M 379.0 14.0 C 387.3 13.8 410.3 11.3 428.0 14.0 C 445.7 16.7 469.0 22.8 485.0 30.0 C 501.0 37.2 511.0 47.8 524.0 57.0 C 537.0 66.2 550.0 75.8 563.0 85.0 C 576.0 94.2 590.5 106.3 602.0 112.0 C 613.5 117.7 617.7 118.0 632.0 119.0 C 646.3 120.0 669.3 118.2 688.0 118.0 C 706.7 117.8 726.5 114.7 744.0 118.0 C 761.5 121.3 778.8 130.7 793.0 138.0 C 807.2 145.3 817.0 154.2 829.0 162.0 C 841.0 169.8 855.0 180.2 865.0 185.0 C 875.0 189.8 878.0 190.0 889.0 191.0 C 900.0 192.0 917.0 191.0 931.0 191.0 C 945.0 191.0 960.5 189.2 973.0 191.0 C 985.5 192.8 995.0 198.2 1006.0 202.0 C 1017.0 205.8 1027.0 207.3 1039.0 214.0 C 1051.0 220.7 1066.2 231.2 1078.0 242.0 C 1089.8 252.8 1101.8 265.8 1110.0 279.0 C 1118.2 292.2 1121.3 307.2 1127.0 321.0 C 1132.7 334.8 1138.3 348.2 1144.0 362.0 C 1149.7 375.8 1152.3 388.5 1161.0 404.0 C 1169.7 419.5 1184.8 441.7 1196.0 455.0 C 1207.2 468.3 1217.2 474.5 1228.0 484.0 C 1238.8 493.5 1248.0 504.8 1261.0 512.0 C 1274.0 519.2 1290.8 522.0 1306.0 527.0 C 1321.2 532.0 1343.0 537.8 1352.0 542.0 C 1361.0 546.2 1359.7 544.7 1360.0 552.0 C 1360.3 559.3 1358.2 578.7 1354.0 586.0 C 1349.8 593.3 1348.5 594.3 1335.0 596.0 C 1321.5 597.7 1293.7 596.0 1273.0 596.0 C 1252.3 596.0 1231.8 596.2 1211.0 596.0 C 1190.2 595.8 1168.8 595.2 1148.0 595.0 C 1127.2 594.8 1106.7 595.0 1086.0 595.0 C 1065.3 595.0 1044.7 595.0 1024.0 595.0 C 1003.3 595.0 982.7 595.0 962.0 595.0 C 941.3 595.0 920.8 595.2 900.0 595.0 C 879.2 594.8 857.8 594.2 837.0 594.0 C 816.2 593.8 795.7 594.0 775.0 594.0 C 754.3 594.0 733.7 594.0 713.0 594.0 C 692.3 594.0 671.7 594.0 651.0 594.0 C 630.3 594.0 609.7 594.0 589.0 594.0 C 568.3 594.0 547.8 594.2 527.0 594.0 C 506.2 593.8 484.8 593.2 464.0 593.0 C 443.2 592.8 422.7 593.0 402.0 593.0 C 381.3 593.0 360.7 593.0 340.0 593.0 C 319.3 593.0 298.7 593.0 278.0 593.0 C 257.3 593.0 236.8 593.2 216.0 593.0 C 195.2 592.8 173.8 592.2 153.0 592.0 C 132.2 591.8 111.7 592.0 91.0 592.0 C 70.3 592.0 41.8 595.5 29.0 592.0 C 16.2 588.5 14.7 579.3 14.0 571.0 C 13.3 562.7 15.5 549.2 25.0 542.0 C 34.5 534.8 55.7 532.8 71.0 528.0 C 86.3 523.2 105.2 519.0 117.0 513.0 C 128.8 507.0 133.7 499.0 142.0 492.0 C 150.3 485.0 156.8 483.0 167.0 471.0 C 177.2 459.0 195.8 434.2 203.0 420.0 C 210.2 405.8 207.7 397.2 210.0 386.0 C 212.3 374.8 216.3 366.8 217.0 353.0 C 217.7 339.2 215.2 319.7 214.0 303.0 C 212.8 286.3 211.2 269.7 210.0 253.0 C 208.8 236.3 205.3 218.8 207.0 203.0 C 208.7 187.2 215.8 172.8 220.0 158.0 C 224.2 143.2 225.2 127.8 232.0 114.0 C 238.8 100.2 251.2 85.8 261.0 75.0 C 270.8 64.2 279.5 57.0 291.0 49.0 C 302.5 41.0 315.5 32.7 330.0 27.0 C 344.5 21.3 369.8 17.2 378.0 15.0 C 386.2 12.8 370.7 14.2 379.0 14.0 Z"/></svg>